<?xml version="1.0" encoding="UTF-8"?>
<svg width="148.68mm" height="147.7mm" version="1.1" viewBox="0 0 148.68 147.7" xmlns="http://www.w3.org/2000/svg" xmlns:cc="http://creativecommons.org/ns#" xmlns:dc="http://purl.org/dc/elements/1.1/" xmlns:rdf="http://www.w3.org/1999/02/22-rdf-syntax-ns#">
 <metadata>
  <rdf:RDF>
   <cc:Work rdf:about="">
    <dc:format>image/svg+xml</dc:format>
    <dc:type rdf:resource="http://purl.org/dc/dcmitype/StillImage"/>
    <dc:title/>
   </cc:Work>
  </rdf:RDF>
 </metadata>
 <g transform="translate(-21.7 -11.269)" fill="none">
  <path d="m105.75 47.907-20.874 36.156h-41.749l-20.874-36.156 20.874-36.156h41.749z" stroke="#af2c18" stroke-dasharray="2.895, 0.965" stroke-dashoffset=".193" stroke-width=".965"/>
  <g id="Icons with numbers" transform="matrix(1.1332 0 0 1.1332 54.277 37.706)" fill-rule="evenodd">
   <g id="Group" transform="translate(0,-528)" fill="#000">
    <path id="Oval 210 copy" d="m4 535v2h3v3h2v-3h3v-2h-3v-3h-2v3zm4 9c-4.4183 0-8-3.5817-8-8s3.5817-8 8-8c4.4183 0 8 3.5817 8 8s-3.5817 8-8 8z"/>
   </g>
  </g>
 </g>
 <g transform="translate(-21.7 -11.269)" fill="none">
  <path d="m169.97 85.121-20.874 36.156h-41.749l-20.874-36.156 20.874-36.156h41.749z" stroke="#af2c18" stroke-dasharray="2.89499, 0.964999" stroke-dashoffset=".193" stroke-width=".965"/>
  <g transform="matrix(1.1332 0 0 1.1332 118.49 74.92)" fill-rule="evenodd">
   <g transform="translate(0,-528)" fill="#000">
    <path d="m4 535v2h3v3h2v-3h3v-2h-3v-3h-2v3zm4 9c-4.4183 0-8-3.5817-8-8s3.5817-8 8-8c4.4183 0 8 3.5817 8 8s-3.5817 8-8 8z"/>
   </g>
  </g>
 </g>
 <g transform="translate(-21.7 -11.269)" fill="none">
  <path d="m105.75 122.33-20.874 36.156h-41.749l-20.874-36.156 20.874-36.156h41.749z" stroke="#af2c18" stroke-dasharray="2.89499, 0.964999" stroke-dashoffset=".193" stroke-width=".965"/>
  <g transform="matrix(1.1332 0 0 1.1332 54.277 112.13)" fill-rule="evenodd">
   <g transform="translate(0,-528)" fill="#000">
    <path d="m4 535v2h3v3h2v-3h3v-2h-3v-3h-2v3zm4 9c-4.4183 0-8-3.5817-8-8s3.5817-8 8-8c4.4183 0 8 3.5817 8 8s-3.5817 8-8 8z"/>
   </g>
  </g>
 </g>
</svg>
